<svg width="364" height="392" viewBox="0 0 364 392" fill="none" xmlns="http://www.w3.org/2000/svg">
<path d="M173.334 38C174.267 39.0666 175.467 39.6 176.134 39.2C177.867 38.1333 176.267 36 173.734 36C172 36 172 36.4 173.334 38Z" fill="#00FFC2"/>
<path d="M145.735 38.8C136.001 40.2667 130.668 42 130.668 44C130.668 46 133.468 45.6 144.935 42.1334C150.668 40.2667 157.468 38.5334 160.001 38.2667C164.535 37.7334 164.535 37.7334 159.335 37.7334C156.401 37.7334 150.268 38.1334 145.735 38.8Z" fill="#00FFC2"/>
<path d="M188 39.9999C188 40.6666 188.4 41.3333 189.067 41.4666C189.6 41.4666 192.133 41.7333 194.667 41.9999C197.2 42.2666 200.533 42.1333 202 41.7333C204 41.0666 203.467 40.5333 199.333 39.8666C191.733 38.3999 188 38.3999 188 39.9999Z" fill="#00FFC2"/>
<path d="M210.667 42.6666C212.134 44.1333 214.934 45.3333 216.934 45.3333C220.401 45.3333 220.534 45.1999 218.001 43.4666C216.534 42.5333 213.734 41.3333 211.601 40.7999L207.867 39.8666L210.667 42.6666Z" fill="#00FFC2"/>
<path d="M117.734 46.5332C110.134 49.4665 109.334 50.6665 115.068 50.3999C118.001 50.2665 120.934 49.1999 122.268 47.7332C125.334 44.2665 124.134 43.9999 117.734 46.5332Z" fill="#00FFC2"/>
<path d="M222.667 46.6667C223.734 47.3333 225.334 48 226 48C226.8 48 226.4 47.3333 225.334 46.6667C224.267 46 222.8 45.3333 222 45.3333C221.334 45.3333 221.6 46 222.667 46.6667Z" fill="#00FFC2"/>
<path d="M231.466 50.3999C233.599 52.5333 235.466 53.9999 235.732 53.8666C236.932 53.1999 232.532 48.1333 230.132 47.4666C227.999 46.9333 228.266 47.5999 231.466 50.3999Z" fill="#00FFC2"/>
<path d="M104.001 54.6666C102.134 56.1333 100.001 57.3333 99.2011 57.3333C93.7344 57.4666 83.8677 61.9999 78.5344 66.9333C72.8011 72.3999 69.3344 78.6666 72.2677 78.6666C72.9344 78.6666 73.0677 79.1999 72.6677 79.9999C72.2677 80.6666 72.1344 81.3333 72.4011 81.3333C72.8011 81.3333 75.6011 77.9999 78.6677 73.9999C84.2677 66.6666 96.6677 57.8666 94.9344 62.5333C94.5344 63.7333 97.2011 61.9999 101.068 58.9333C107.068 53.8666 108.934 51.8666 107.734 51.9999C107.468 51.9999 105.868 53.1999 104.001 54.6666Z" fill="#00FFC2"/>
<path d="M251.199 62.5331C253.199 64.6665 256.133 66.7998 257.599 67.1998C259.866 67.7331 259.466 66.9331 255.866 63.1998C253.466 60.6665 250.533 58.6665 249.466 58.6665C248.133 58.6665 248.666 59.8665 251.199 62.5331Z" fill="#00FFC2"/>
<path d="M52.1337 92.9332C47.6004 98.6665 42.267 106.267 40.5337 109.867C38.667 113.467 35.067 119.2 32.667 122.8C26.9337 130.8 24.0004 137.6 22.667 146C22.1337 149.6 20.5337 155.333 19.3337 158.667C17.467 163.6 17.2004 167.333 18.0004 180.4C18.667 192.533 18.5337 196 17.2004 195.333C14.667 193.6 16.267 217.467 19.067 221.733C20.267 223.733 21.3337 227.067 21.3337 229.333C21.3337 231.467 22.0004 233.333 22.8004 233.333C23.867 233.333 24.1337 234.933 23.6004 237.867C23.067 241.6 23.7337 244 27.467 250.267C30.1337 254.533 33.067 258.533 34.1337 259.067C35.2004 259.6 36.0004 261.333 36.0004 262.933C36.0004 264.4 37.3337 267.867 38.8004 270.667C41.2004 274.8 42.4004 275.733 45.2004 275.333C49.7337 274.8 49.067 272.4 43.067 267.067C38.5337 263.333 38.267 262.533 39.6004 259.6C40.9337 256.667 40.8004 256 38.0004 254.133C36.267 252.933 34.1337 252 33.467 252C31.867 252 31.2004 249.333 30.1337 239.467C29.3337 233.2 27.867 229.333 24.0004 223.067C22.9337 221.467 22.4004 219.867 22.8004 219.467C24.1337 218 29.3337 220.4 30.0004 222.8C30.5337 224.133 31.3337 225.333 32.0004 225.333C33.867 225.333 30.667 217.067 27.3337 213.333C23.6004 209.2 21.7337 198.8 20.667 176.533C20.1337 166.133 20.267 160 21.067 159.467C21.867 159.067 22.8004 159.867 23.3337 161.333C24.4004 164.533 29.067 164.933 30.267 161.867C31.467 158.8 28.267 156.133 26.5337 158.667C25.467 160.133 25.3337 159.067 25.867 154.933C26.667 149.333 34.0004 130 36.267 127.333C36.8004 126.667 37.3337 125.067 37.3337 123.733C37.3337 122.267 39.467 119.067 42.0004 116.4C45.067 113.333 46.667 110.267 46.667 108C46.667 104.133 54.267 95.9999 57.867 95.9999C61.3337 95.9999 64.267 91.0665 63.3337 86.7999C62.8004 84.5332 62.0004 82.6665 61.467 82.6665C60.8004 82.6665 56.667 87.3332 52.1337 92.9332Z" fill="#00FFC2"/>
<path d="M286.132 90.5333C285.599 91.3333 286.532 92.5333 287.999 93.3333C291.065 94.9333 291.599 93.0666 288.799 90.7999C287.599 89.7333 286.665 89.7333 286.132 90.5333Z" fill="#00FFC2"/>
<path d="M290.668 99.1998C290.668 99.4665 292.135 100.666 294.001 101.866C297.735 104.4 298.401 103.866 295.201 100.8C293.335 98.7998 290.668 97.8665 290.668 99.1998Z" fill="#00FFC2"/>
<path d="M163.735 127.467C154.002 137.333 145.869 146 145.602 146.8C144.935 148.4 148.535 148.267 155.335 146.667C174.402 142 180.269 141.333 184.935 143.6C189.869 145.867 191.602 148.267 192.002 153.333C192.535 159.733 192.002 161.6 188.135 165.467C184.669 168.8 183.202 169.333 176.669 169.333C168.535 169.333 161.869 167.067 155.202 162C149.602 157.733 149.335 157.867 150.669 162.8C154.802 177.333 170.935 185.333 186.269 180.533C204.802 174.667 214.535 154.4 206.669 138C202.135 128.533 194.802 122.4 184.935 119.867C179.602 118.4 178.802 117.733 179.469 115.333C180.002 113.867 180.935 111.867 181.602 110.933C182.402 110.133 182.669 109.333 182.269 109.333C181.735 109.333 173.469 117.467 163.735 127.467ZM167.735 133.867C168.669 138.667 160.402 143.867 157.869 139.867C156.935 138.133 163.869 130.4 166.002 131.067C166.669 131.333 167.602 132.533 167.735 133.867Z" fill="#00FFC2"/>
<path d="M298.668 110.933C298.668 112.133 299.335 113.6 300.001 114C301.735 115.066 301.735 113.333 300.001 110.666C298.935 108.933 298.668 108.933 298.668 110.933Z" fill="#00FFC2"/>
<path d="M315.332 156C315.732 156.667 316.399 157.333 316.799 157.333C317.066 157.333 317.332 156.667 317.332 156C317.332 155.2 316.666 154.667 315.866 154.667C315.199 154.667 314.932 155.2 315.332 156Z" fill="#00FFC2"/>
<path d="M327.469 204.667C327.069 205.867 326.669 210.8 326.669 215.467C326.669 220.267 326.135 224 325.335 224C324.669 224 324.002 223.067 324.002 222C324.002 220.933 323.469 220 322.935 220C321.202 220 318.402 230.133 317.602 238.933C316.935 246.4 314.669 249.867 314.669 243.6C314.669 241.867 311.735 246.133 307.202 254.533C299.202 269.6 293.469 278.667 288.402 284.133C286.669 286 284.935 289.333 284.535 291.467C283.469 297.6 281.202 304 280.135 304C279.469 304 277.469 307.6 275.469 312C273.602 316.4 270.935 320.4 269.735 320.933C268.402 321.467 264.402 324.133 260.935 326.933C252.402 333.6 248.535 333.733 254.802 327.067C257.202 324.4 258.535 322.667 257.735 323.2C256.535 323.867 256.002 323.2 256.002 321.467C256.002 319.067 255.202 319.2 245.735 324.133C234.535 329.733 232.002 330.4 232.002 327.333C232.002 324.933 231.335 324.933 227.869 326.667C226.135 327.6 225.335 329.467 225.335 332.667C225.335 337.733 224.269 338.667 217.469 340.133C214.802 340.667 211.202 341.6 209.469 342.133C207.602 342.667 206.535 342.533 207.069 341.867C207.469 341.2 204.535 340.933 200.402 341.2C196.135 341.333 191.735 340.933 190.002 340C187.469 338.667 186.135 338.8 182.535 340.533C178.135 342.667 169.735 343.2 161.069 341.867C157.469 341.2 156.402 340.533 156.935 338.933C157.602 337.333 157.069 337.067 154.535 337.733C152.802 338.267 144.802 339.067 136.802 339.6L122.269 340.4L122.935 336.267C123.602 331.2 121.469 330 113.735 331.467C104.802 333.067 104.402 334.133 111.335 337.2C118.269 340.267 118.802 342.533 111.869 340.133C105.735 338 104.535 338.267 108.135 341.2C109.869 342.533 113.469 344.133 116.002 344.667C118.535 345.2 121.602 346.533 122.802 347.467C125.069 349.6 142.402 352.133 143.335 350.533C143.735 350 146.269 349.2 148.935 348.8C157.469 347.2 158.935 346.533 158.135 344.4C157.469 342.667 158.002 342.533 161.469 343.2C163.735 343.6 167.069 344 168.802 344C175.602 344 170.402 351.467 162.402 353.333L158.002 354.4L162.402 354.533C167.602 354.667 172.002 352.667 172.002 350C172.002 347.333 178.935 345.6 193.335 344.933L206.002 344.133L202.802 346.8C199.735 349.333 198.802 349.6 191.335 349.867C188.269 350 187.202 350.667 186.935 352.933C186.535 355.867 186.535 355.867 204.269 351.2C214.002 348.667 227.469 344.8 234.135 342.533C263.735 332.8 294.802 305.733 312.269 274.533C324.935 251.867 333.069 225.6 331.602 211.6C330.935 204.533 328.935 201.067 327.469 204.667Z" fill="#00FFC2"/>
<path d="M132.267 205.2C128.4 205.733 124.667 206.933 124.134 207.867C120.667 213.467 121.2 261.733 124.667 263.2C125.867 263.6 126.534 260.267 127.2 250.933C127.734 243.867 128.4 237.867 128.8 237.467C129.067 237.067 133.2 236.533 137.867 236.267C145.734 235.733 146.534 236 149.867 239.467C151.867 241.6 156.534 248 160.267 253.6C164 259.333 167.6 264 168.267 264C168.934 264 170.134 262.533 170.934 260.667C172.4 257.467 171.867 256.667 162.267 247.333C156.667 241.867 152 237.067 152 236.533C152 236.133 156.534 236.133 162 236.667L172 237.6V223.733C172 216.267 171.467 209.2 170.8 208.133C168.667 204.8 148.4 203.333 132.267 205.2ZM166.4 220.933L166 231.333L147.734 231.733C127.067 232.133 128.267 232.8 130.8 221.6L132.4 214.933L139.867 213.467C150.534 211.333 153.2 211.067 160.4 210.8L166.8 210.667L166.4 220.933Z" fill="#00FFC2"/>
<path d="M183.468 206.4C182.134 208.533 181.334 241.333 182.268 251.867C183.868 268.667 185.868 266.8 187.734 247.067C189.734 225.6 190.134 222.8 191.334 221.6C192.401 220.533 207.468 236.4 216.134 247.467C220.668 253.467 221.601 255.467 221.068 259.333C220.534 263.733 220.801 264 224.668 264C226.801 264 229.334 263.467 230.268 262.933C233.734 260.667 233.601 207.067 230.001 206.267C228.668 206 227.734 212.267 226.001 233.467C225.601 239.733 224.668 245.6 224.001 246.667C223.201 248 220.401 245.867 213.334 238.533C208.134 233.067 201.468 225.467 198.401 221.6C193.734 215.6 193.068 214 193.734 210C194.534 205.333 194.534 205.333 189.334 205.333C186.534 205.333 183.868 205.733 183.468 206.4Z" fill="#00FFC2"/>
<path d="M37.332 233.333C37.332 234 37.9987 234.667 38.7987 234.667C39.4654 234.667 39.732 234 39.332 233.333C38.932 232.533 38.2654 232 37.8654 232C37.5987 232 37.332 232.533 37.332 233.333Z" fill="#00FFC2"/>
<path d="M38.668 251.2C38.668 251.6 39.868 252.533 41.3346 253.333C42.8013 254.133 44.0013 254.4 44.0013 254.133C44.0013 253.733 42.8013 252.8 41.3346 252C39.868 251.2 38.668 250.933 38.668 251.2Z" fill="#00FFC2"/>
<path d="M44.5324 280.533C46.2658 283.2 46.5324 284.667 45.4658 285.333C43.3324 286.533 60.2658 305.333 65.7324 308C68.1324 309.067 70.1324 310.933 70.1324 312C70.2658 313.067 70.3991 314.8 70.5324 315.733C70.5324 316.667 74.1325 319.6 78.3991 322.4C82.5325 325.2 88.6658 329.333 91.8658 331.733C95.0658 334 98.6658 336 99.8658 336C101.066 335.867 100.132 335.067 97.8658 334.133C93.4658 332.267 90.7991 329.333 93.1991 329.333C93.9991 329.333 94.6658 328.4 94.6658 327.333C94.6658 326.267 95.3325 325.333 95.9991 325.333C98.6658 325.333 97.1991 322.8 93.0658 320.4C90.6658 318.933 85.4658 313.067 81.4658 307.2C73.5991 295.733 60.1325 281.467 57.7325 282.267C55.1991 283.2 61.0658 293.067 66.2658 296.533C70.5324 299.467 76.1325 308.133 73.5991 308C69.9991 307.733 60.5325 299.733 55.5991 292.667C50.6658 285.467 41.3324 275.2 44.5324 280.533Z" fill="#00FFC2"/>
<path d="M108 320.533C108 320.8 108.933 321.467 110.133 321.867C111.2 322.267 111.733 322.133 111.333 321.333C110.533 320 108 319.467 108 320.533Z" fill="#00FFC2"/>
<path d="M168.001 336C166.934 336.667 166.534 337.6 167.067 338.133C167.601 338.667 168.801 338.4 169.601 337.6C171.601 335.6 170.534 334.4 168.001 336Z" fill="#00FFC2"/>
<path d="M174.535 354.667C171.335 357.2 171.335 357.2 174.135 357.333C175.868 357.333 177.335 356.267 177.735 354.667C178.535 351.333 178.401 351.333 174.535 354.667Z" fill="#00FFC2"/>
</svg>
