<svg xmlns="http://www.w3.org/2000/svg" xmlns:xlink="http://www.w3.org/1999/xlink" viewBox="0,0,256,256" width="80px" height="80px"><g fill="#ffffff" fill-rule="nonzero" stroke="none" stroke-width="1" stroke-linecap="butt" stroke-linejoin="miter" stroke-miterlimit="10" stroke-dasharray="" stroke-dashoffset="0" font-family="none" font-weight="none" font-size="none" text-anchor="none" style="mix-blend-mode: normal"><g transform="scale(16,16)"><path d="M15.973,3h-1.203l-2.77,4.133l-2.77,-4.133h-1.203l3.371,5.031l-3.329,4.969h1.203l2.728,-4.071l2.728,4.071h1.203l-3.329,-4.969z"></path><path d="M6.81,10c-0.005,0.013 -0.006,0.027 -0.011,0.039c-0.445,1.173 -1.57,1.961 -2.832,1.961c-1.636,0 -2.967,-1.362 -2.967,-3.036v-0.964h4.439v0h2.561v-1h-0.003c-0.019,-2.208 -1.788,-4 -4.03,-4c-2.188,0 -3.967,1.811 -3.967,4.036v1.929c0,2.225 1.779,4.035 4,4.035c1.644,0 3.144,-1.048 3.734,-2.607c0.049,-0.128 0.076,-0.262 0.111,-0.393zM4.033,4c1.624,0 2.944,1.343 2.963,3h-5.993c0.019,-1.657 1.34,-3 3.03,-3z"></path></g></g></svg>