<svg width="32" height="31" viewBox="0 0 32 31" fill="none" xmlns="http://www.w3.org/2000/svg">
<path d="M31.786 25.6585C31.6487 25.0757 31.4421 24.5015 31.1289 23.9809C30.506 22.9326 29.5564 22.1324 28.5589 21.486C27.5513 20.8417 26.4737 20.3247 25.371 19.8992C23.2594 19.0833 23.3617 19.1105 21.9365 18.6021C18.7787 17.4766 17.0253 15.8033 16.9152 13.9884C16.8623 13.1096 17.7204 10.2457 21.2586 10.9264C22.0988 11.088 22.894 11.3147 23.677 11.668C24.3985 11.994 26.5044 13.0152 27.2424 14.4689C27.2982 15.1104 27.5241 15.3585 28.4266 15.7847C29.1052 16.105 29.7902 16.4533 29.8517 17.2427C29.8553 17.2856 29.8882 17.3207 29.9454 17.3292C29.9826 17.3292 30.0169 17.3071 30.0319 17.2713C30.1621 16.9574 30.6862 16.5641 31.0767 16.6714C31.1217 16.6828 31.1618 16.6649 31.1825 16.6278C31.2039 16.5906 31.1968 16.5448 31.1675 16.5148L30.5504 15.9041C30.328 15.6824 30.0848 15.3885 29.8789 15.011C29.8231 14.9094 29.7752 14.8093 29.733 14.7128C29.7059 14.6456 29.6787 14.579 29.6515 14.5118C29.1338 13.1568 28.1691 11.7051 27.1738 10.7648C26.6332 10.245 26.0382 9.7873 25.4039 9.39687C24.7668 9.01215 24.1032 8.67034 23.3781 8.46583L23.3252 8.64889C24.0024 8.88272 24.6359 9.25599 25.2287 9.66359C25.8208 10.0776 26.3679 10.5524 26.8541 11.0787C27.5485 11.8167 28.0955 12.6734 28.4859 13.5901L27.0608 11.8188L27.1001 12.4324L25.9324 11.1159L26.0046 11.7323L24.8705 10.8177L24.9677 11.2353C24.7124 11.0666 22.4471 10.1656 21.3165 9.74082C20.186 9.31606 17.9521 7.22088 18.5964 4.56936C18.5964 4.56936 17.5402 4.1589 16.7836 3.87931C16.0378 3.61044 15.2891 3.3666 14.5383 3.13133C13.0366 2.66081 11.5264 2.23176 10.0083 1.83132C8.49014 1.43302 6.96202 1.0719 5.42531 0.752979C3.88789 0.437629 2.34189 0.156602 0.777292 0L0.749404 0.238122C2.28897 0.474813 3.80852 0.833783 5.31662 1.22636C6.82401 1.62323 8.32138 2.06015 9.80661 2.53424C11.2911 3.00977 12.7663 3.5139 14.2237 4.05593C14.9516 4.32695 15.6774 4.60583 16.3882 4.90545C16.5391 4.96837 16.6928 5.03416 16.8466 5.09995C15.9713 4.92762 15.0961 4.79104 14.2201 4.67734C12.639 4.4764 11.0566 4.34983 9.47266 4.27832C7.88948 4.20681 6.30486 4.19537 4.7231 4.25401C3.14206 4.31551 1.5603 4.43922 0 4.70666L0.0307484 4.92404C1.58962 4.76386 3.15922 4.74813 4.72382 4.79318C6.28913 4.84109 7.85158 4.95836 9.40545 5.13427C10.9586 5.31018 12.5053 5.53972 14.0313 5.83934C14.9723 6.02598 15.9077 6.24265 16.8223 6.49793C16.0993 6.42571 15.3799 6.40712 14.667 6.4157C13.2533 6.43715 11.8596 6.59232 10.4852 6.82615C9.11083 7.06213 7.75504 7.37891 6.42714 7.78865C5.10353 8.20268 3.79493 8.69466 2.59359 9.39687L2.67654 9.5456C3.90648 8.95351 5.22795 8.57452 6.55657 8.27347C7.88805 7.97743 9.23883 7.77435 10.5925 7.65278C11.9447 7.53265 13.3041 7.49261 14.642 7.58056C15.8319 7.65922 17.0139 7.84014 18.0958 8.18766C18.1423 8.50588 18.3575 9.15016 18.4612 9.47195C15.4186 10.8714 15.0331 13.3884 15.282 14.7385C15.5744 16.3217 16.72 17.5288 18.0736 18.3103C19.1942 18.9475 20.339 19.3536 21.4531 19.7741C22.5651 20.191 23.6663 20.5914 24.6474 21.1456C25.6142 21.6798 26.4179 22.505 27.0722 23.441C28.3858 25.3274 28.9114 27.7058 29.0687 30.0519L29.3297 30.0448C29.3354 27.6686 28.9936 25.1808 27.7194 23.0284C27.2989 22.3234 26.7797 21.6548 26.1669 21.0741C26.8763 21.3487 27.5692 21.6591 28.2314 22.0273C29.2132 22.5844 30.1385 23.278 30.7685 24.209C31.086 24.6717 31.3083 25.1923 31.4714 25.7343C31.6158 26.2828 31.6823 26.8534 31.7066 27.4298H31.9297C31.9376 26.8412 31.9047 26.2463 31.786 25.6585Z" fill="white"/>
</svg>
