<svg width="30" height="30" viewBox="0 0 30 30" fill="none" xmlns="http://www.w3.org/2000/svg">
<path d="M14.6739 0C9.00051 0 7.82609 2.92969 7.82609 4.62636V7.82609H14.3478V8.47826H4.62636C2.47368 8.47826 0 10.1749 0 15C0 19.8251 2.47368 21.5217 4.62636 21.5217H8.47826V17.6087C8.47826 16.1744 9.65268 15 11.087 15H18.913C20.0212 15 20.8696 14.1517 20.8696 13.0435V4.62636C20.8696 2.34375 18.7169 0 14.6739 0ZM11.7391 3.26087C12.4575 3.26087 13.0435 3.84681 13.0435 4.56522C13.0435 5.28363 12.4575 5.86957 11.7391 5.86957C11.0207 5.86957 10.4348 5.28363 10.4348 4.56522C10.4348 3.84681 11.0207 3.26087 11.7391 3.26087ZM21.5217 8.47826V13.0435C21.5217 14.4778 20.3473 15.6522 18.913 15.6522H11.087C9.97877 15.6522 9.13044 16.5005 9.13044 17.6087V25.3736C9.13044 27.6563 11.2831 30 15.3261 30C20.9995 30 22.1739 27.0703 22.1739 25.3736V22.1739H15.6522V21.5217H25.3736C27.5263 21.5217 30 19.8251 30 15C30 10.1749 27.5263 8.47826 25.3736 8.47826H21.5217ZM18.2609 24.1304C18.9793 24.1304 19.5652 24.7164 19.5652 25.4348C19.5652 26.1532 18.9793 26.7391 18.2609 26.7391C17.5425 26.7391 16.9565 26.1532 16.9565 25.4348C16.9565 24.7164 17.5425 24.1304 18.2609 24.1304Z" fill="white"/>
</svg>
