<svg width="65" height="73" viewBox="0 0 65 73" fill="none" xmlns="http://www.w3.org/2000/svg">
<path d="M18.7354 18.4666C9.00208 28.3333 0.868745 37 0.602079 37.8C-0.064588 39.4 3.53541 39.2666 10.3354 37.6666C29.4021 33 35.2687 32.3333 39.9354 34.6C44.8687 36.8666 46.6021 39.2666 47.0021 44.3333C47.5354 50.7333 47.0021 52.6 43.1354 56.4666C39.6687 59.8 38.2021 60.3333 31.6687 60.3333C23.5354 60.3333 16.8687 58.0666 10.2021 53C4.60208 48.7333 4.33541 48.8666 5.66875 53.8C9.80208 68.3333 25.9354 76.3333 41.2687 71.5333C59.8021 65.6666 69.5354 45.4 61.6687 29C57.1354 19.5333 49.8021 13.4 39.9354 10.8666C34.6021 9.39995 33.8021 8.73329 34.4687 6.33329C35.0021 4.86662 35.9354 2.86662 36.6021 1.93329C37.4021 1.13329 37.6687 0.333289 37.2687 0.333289C36.7354 0.333289 28.4687 8.46662 18.7354 18.4666ZM22.7354 24.8666C23.6687 29.6666 15.4021 34.8666 12.8687 30.8666C11.9354 29.1333 18.8687 21.4 21.0021 22.0666C21.6687 22.3333 22.6021 23.5333 22.7354 24.8666Z" fill="#00FFC2"/>
</svg>
